<svg viewBox="0 0 512 512" xmlns="http://www.w3.org/2000/svg"><circle cx="256" cy="256" fill="#3bd96d" r="256"/><path d="M122.399 146.495l23.103 23.103 9.486 84.78-70.623 20.221 35.998 35.998 27.507 112.105-63.505-.753 68.336 68.336C184.298 504.236 219.24 512 256 512c141.385 0 256-114.615 256-256a257.26 257.26 0 00-4.657-48.754L359.134 59.037z" fill="#3bd96d"/><path d="M256 129.889H152.866V59.037H256l45.814 35.426z" fill="#73553a"/><path d="M256 59.037h103.134v70.851H256z" fill="#5c442f"/><path d="M256 411.819H106.526v-147.35H256l66.399 73.675z" fill="#9f7651"/><path d="M256 264.469h149.474v147.35H256z" fill="#896645"/><path d="M256 286.5H134.011V139.151H256l54.189 73.674z" fill="#9f7651"/><path d="M256 139.151h121.989v147.35H256z" fill="#896645"/><path d="M256 411.819h-34.372v-110.91H256l15.269 55.455z" fill="#5a5555"/><path d="M256 300.909h34.372v110.91H256z" fill="#464141"/><path d="M134.236 300.909h63.603v60.638h-63.603z" fill="#896645"/><g fill="#adcfff"><path d="M141.377 307.716h20.177v19.027h-20.177zM170.522 307.716h20.177v19.027h-20.177zM141.377 335.712h20.177v19.027h-20.177zM170.522 335.712h20.177v19.027h-20.177z"/></g><path d="M314.386 300.909h63.603v60.638h-63.603z" fill="#73553a"/><path d="M321.527 307.716h20.177v19.027h-20.177zM350.672 307.716h20.177v19.027h-20.177zM321.527 335.712h20.177v19.027h-20.177zM350.672 335.712h20.177v19.027h-20.177z" fill="#8bbbff"/><g><path d="M162.509 164.024h63.603v60.638h-63.603z" fill="#896645"/><g fill="#adcfff"><path d="M169.65 170.832h20.177v19.027H169.65zM198.795 170.832h20.177v19.027h-20.177zM169.65 198.828h20.177v19.027H169.65zM198.795 198.828h20.177v19.027h-20.177z"/></g></g><g><path d="M286.113 164.024h63.603v60.638h-63.603z" fill="#73553a"/><path d="M293.253 170.832h20.177v19.027h-20.177zM322.399 170.832h20.177v19.027h-20.177zM293.253 198.828h20.177v19.027h-20.177zM322.399 198.828h20.177v19.027h-20.177z" fill="#8bbbff"/></g><g><path d="M256 421.949H84.365v-20.26H256l76.243 10.13z" fill="#896645"/><path d="M256 401.689h171.635v20.259H256z" fill="#73553a"/></g><g><path d="M256 146.495H122.399v-20.259H256l59.348 10.129z" fill="#896645"/><path d="M256 126.236h133.601v20.259H256z" fill="#73553a"/></g><g><path d="M256 274.599H84.365v-10.744l49.646-21.41H256l76.243 22.024z" fill="#896645"/><path d="M427.635 274.599H256v-32.154h121.989l49.646 21.41z" fill="#73553a"/></g><g><path d="M216.594 118.581l-8.521-3.246 17.67-46.395 7.962-.009 17.52 46.423-8.531 3.219-12.989-34.418z" fill="#9f7651"/><path d="M240.768 107.493h-22.156a4.559 4.559 0 110-9.118h22.156a4.559 4.559 0 110 9.118z" fill="#9f7651"/><path d="M269.82 117.814h-9.117V69.007l8.823.003 19.219 30.586V68.935h9.117v48.268h-8.822l-19.22-30.587zM311.433 68.935h9.117v48.88h-9.117z" fill="#896645"/><path d="M338.909 119.702l-24.81-23.935.08-6.638 23.474-21.575 6.17 6.713-19.909 18.299 21.325 20.574z" fill="#896645"/><g><path d="M168.648 96.412V68.935h16.109c7.559 0 13.708 6.149 13.708 13.708s-6.149 13.708-13.708 13.708c-2.501 0-11.53.041-11.53.041zm9.118-18.36v9.203c2.643-.01 5.693-.021 6.992-.021 2.531 0 4.591-2.06 4.591-4.591s-2.06-4.591-4.591-4.591z" fill="#9f7651"/><path d="M168.648 117.835V87.244h18.126c8.416 0 15.262 6.846 15.262 15.262s-6.846 15.262-15.262 15.262c-2.927 0-13.546.047-13.547.047zm9.118-21.474v12.317c3.265-.013 7.357-.028 9.009-.028 3.388 0 6.145-2.756 6.145-6.145s-2.756-6.145-6.145-6.145h-9.009z" fill="#9f7651"/></g></g></svg>