<svg height="512" width="512" xmlns="http://www.w3.org/2000/svg"><circle cx="256" cy="256" fill="#fceb47" r="256"/><path d="M399.204 164.502l-296.778 241.08 101.005 101.005A257.103 257.103 0 00256 512c141.385 0 256-114.615 256-256 0-40.152-9.253-78.139-25.728-111.96l-37.73-37.73z" fill="#fceb47"/><path d="M302.05 77.906l146.635 28.52-39.9 205.14-146.634-28.52z" fill="#e8e1de"/><path d="M306.864 116.896l-3.611-2.244 15.465-24.893 3.885.75 4.922 28.87-4.191.714-3.975-23.311z" fill="#cf3b00"/><path d="M323.052 113.316l-13.333-2.592a2.126 2.126 0 01.811-4.173l13.333 2.592a2.126 2.126 0 01-.811 4.173z" fill="#cf3b00"/><g><path d="M403.353 274.495l3.612 2.243-15.465 24.894-3.885-.751-4.923-28.869 4.191-.715 3.975 23.312z" fill="#cf3b00"/><path d="M387.165 278.075l13.333 2.592a2.126 2.126 0 01-.811 4.173l-13.333-2.592a2.126 2.126 0 01.811-4.173z" fill="#cf3b00"/></g><path d="M400.206 174.24c-8.773-13.007-26.429-16.44-39.437-7.669-8.775-13.005-26.431-16.436-39.438-7.663s-16.44 26.429-7.669 39.437l-.004.003 31.774 47.107.004-.003.003.004 47.107-31.774-.003-.004c13.006-8.775 16.437-26.431 7.663-39.438z" fill="#cf3b00"/><g><path d="M62.632 200.573l146.634-28.52 39.9 205.14-146.635 28.52z" fill="#f5f2f1"/><path d="M81.749 234.916l-4.189-.727 5.014-28.874 3.883-.76 15.379 24.924-3.618 2.232L85.8 211.586z" fill="#ff4c04"/><path d="M95.417 225.533l-13.333 2.592a2.126 2.126 0 01-.811-4.173l13.333-2.592a2.126 2.126 0 01.811 4.173z" fill="#ff4c04"/><g><path d="M230.25 344.894l4.189.727-5.014 28.874-3.883.76-15.379-24.923 3.618-2.233 12.418 20.125z" fill="#ff4c04"/><path d="M216.582 354.277l13.333-2.592a2.126 2.126 0 01.811 4.173l-13.333 2.592a2.126 2.126 0 01-.811-4.173z" fill="#ff4c04"/></g><path d="M113.7 296.934l33.863-50.22 50.22 33.863-33.864 50.22z" fill="#ff4c04"/></g><g><path d="M257.502 366.474h-87.091V122.806h87.091l23.426 122.78z" fill="#fff"/><path d="M257.502 122.806h87.084v243.668h-87.084z" fill="#f5f2f1"/><path d="M184.72 166.46l-4.634-1.766 12.167-31.945 4.615-.005 12.062 31.96-4.639 1.751-9.74-25.807z" fill="#5a5555"/><path d="M202.459 158.758h-15.843a2.48 2.48 0 010-4.958h15.843a2.48 2.48 0 010 4.958z" fill="#5a5555"/><path d="M330.277 325.436l4.634 1.765-12.167 31.945-4.615.006-12.062-31.961 4.64-1.751 9.739 25.807z" fill="#464141"/><path d="M312.538 333.138h15.843a2.48 2.48 0 010 4.958h-15.843a2.48 2.48 0 010-4.958z" fill="#464141"/><path d="M257.502 311.753l5.902-66.167-5.902-64.572-46.866 46.866c-12.942 12.942-12.942 33.924 0 46.866 10.654 10.654 26.753 12.528 39.334 5.641l-5.467 31.365h12.999z" fill="#5a5555"/><path d="M270.197 311.753l-5.499-31.549c12.628 7.102 28.916 5.289 39.663-5.458 12.94-12.94 12.942-33.92.004-46.862l.004-.004-46.866-46.866v130.738h12.694z" fill="#464141"/></g></svg>