<svg height="512" width="512" xmlns="http://www.w3.org/2000/svg"><circle cx="256" cy="256" fill="#ef8da4" r="256"/><path d="M266.189 511.78c133.151-5.214 240.169-112.111 245.577-245.212L406.671 161.473l-157.235 7.962L165 85l6.971 74.347L325.784 313.16l-259.773-1.558z" fill="#ef8da4"/><path d="M276.498 237.946C156.929 237.946 60 264.649 60 297.59s96.929 59.644 216.498 59.644c64.668 0 122.703-7.814 162.373-20.198v-78.892c-39.671-12.384-97.706-20.198-162.373-20.198z" fill="#fa5d0f"/><path d="M60.028 296.976c-.007.205-.028.409-.028.614 0 32.941 96.929 59.644 216.498 59.644 64.668 0 122.703-7.814 162.373-20.198v-40.06z" fill="#d13400"/><path d="M276.498 237.946C156.929 237.946 60 264.649 60 297.59s96.929 59.644 216.498 59.644c24.758 0 48.538-1.149 70.693-3.258V241.203c-22.156-2.108-45.935-3.257-70.693-3.257z" fill="#8d5c4d"/><path d="M60.028 296.976c-.007.205-.028.409-.028.614 0 32.941 96.929 59.644 216.498 59.644 24.758 0 48.538-1.149 70.693-3.258v-57.001H60.028z" fill="#704639"/><path d="M436 237.946h-34V227c0-29.776-24.225-54-54-54H219c-48.523 0-88-39.477-88-88h34c0 29.776 24.224 54 54 54h129c48.523 0 88 39.477 88 88z" fill="#fff"/><path d="M348 139h-93v34h93c29.775 0 54 24.224 54 54v10.946h34V227c0-48.523-39.477-88-88-88z" fill="#e9edf5"/></svg>