<svg height="512" width="512" xmlns="http://www.w3.org/2000/svg"><circle cx="256" cy="256" fill="#d1d124" r="256"/><path d="M66.292 367.662L205.67 507.041A257.173 257.173 0 00256 512c141.385 0 256-114.615 256-256 0-5.604-.2-11.161-.555-16.675l-75.243-75.243z" fill="#d1d124"/><path d="M188.542 367.662H66.292v-50.895h122.25l54.306 25.448z" fill="#ffe79b"/><path d="M188.542 316.767h122.251v50.895H188.542zM188.542 316.767H66.292v-50.895h122.25l54.306 25.448z" fill="#f9d07f"/><path d="M188.542 265.872h122.251v50.895H188.542z" fill="#e7b964"/><g><path d="M188.542 265.872H66.292v-50.895h122.25l54.306 25.447z" fill="#ffe79b"/><path d="M188.542 214.977h122.251v50.895H188.542z" fill="#f9d07f"/></g><g><path d="M188.542 214.977H66.292v-50.895h122.25l54.306 25.447z" fill="#f9d07f"/><path d="M188.542 164.082h122.251v50.895H188.542z" fill="#e7b964"/></g><g><path d="M406.585 245.999L345.46 368.25c-67.517 0-122.251-54.734-122.251-122.251s54.734-122.251 122.251-122.251z" fill="#ffe79b"/><path d="M467.711 245.999c0 67.517-54.734 122.251-122.251 122.251V123.748c67.517 0 122.251 54.734 122.251 122.251z" fill="#f9d07f"/><g><path d="M392.453 245.999l-46.993 93.986c-51.907 0-93.986-42.079-93.986-93.986s42.079-93.986 93.986-93.986z" fill="#f9d07f"/><path d="M439.446 245.999c0 51.907-42.079 93.986-93.986 93.986V152.013c51.907 0 93.986 42.079 93.986 93.986z" fill="#e7b964"/></g><g><path d="M345.46 332.812h-8.604V159.42h8.604l4.302 88.297z" fill="#e7b964"/><path d="M345.46 159.42h8.604v173.393h-8.604z" fill="#cb9e56"/><path d="M309.829 205.485c-2.276 12.079 1.593 23.728 10.098 30.399 5.345 4.192 12.231 7.966 22.306 12.123v-18.793c-4.512-2.139-8.573-4.428-11.686-6.869-3.431-2.691-4.891-7.93-3.809-13.673 1.022-5.416 4.724-11.99 12.054-14.199a34.639 34.639 0 013.44-.843v-17.419a51.275 51.275 0 00-8.403 1.785c-12.306 3.708-21.503 14.241-24 27.489z" fill="#e7b964"/><path d="M371.76 204.693l11.667-12.649-6.324-5.833c-.561-.517-11.288-10.169-28.416-10.372v17.22c10.061.181 16.287 5.401 16.798 5.846zM362.537 237.305c-4.558-1.611-9.307-3.36-13.851-5.241v18.492a372.8 372.8 0 008.116 2.973c15.898 5.619 14.919 19.229 14.24 23.266-1.598 9.506-9.237 19.725-22.356 20.934v17.266c23.126-1.252 36.568-18.94 39.325-35.347 3.215-19.117-6.785-35.737-25.474-42.343z" fill="#cb9e56"/><path d="M311.734 285.907l-9.42 14.4 7.199 4.71c12.641 8.269 20.676 9.87 32.721 10.036v-17.205c-9.36-.128-14.17-1.259-23.3-7.232z" fill="#e7b964"/></g></g></svg>