<svg height="512" width="512" xmlns="http://www.w3.org/2000/svg"><circle cx="256" cy="256" fill="#adcfff" r="256"/><path d="M509.109 294.565L309.88 95.336l-46.479 46.481-150.605 150.606 25.445 60.362 156.324 156.324c110.508-16.697 197.847-104.036 214.544-214.544z" fill="#adcfff"/><path d="M215.824 402.963l-34.64-34.64 17.458-17.458 34.64 34.639.521 18.115z" fill="#ffe79b"/><path d="M233.302 385.439l34.632 34.632-17.456 17.456-34.632-34.632z" fill="#f9d07f"/><path d="M228.529 390.259l-42.908-42.908 113.064-113.063 47.955 37.859-56.853 79.935z" fill="#f9d07f"/><path d="M271.432 433.162l-42.903-42.903L346.64 272.147l37.856 47.952z" fill="#e7b964"/><path d="M202.122 416.666l-42.907-42.908 17.458-17.458 42.907 42.907 2.744 20.338z" fill="#f9d07f"/><path d="M219.603 399.14l42.897 42.898-17.456 17.456-42.897-42.898z" fill="#e7b964"/><path d="M305.75 227.223c23.696-23.696 95.716-40.3 110.913-25.103l-30.832 59.605-44.24 15.47-42.907-42.907z" fill="#9f7651"/><path d="M416.664 202.12c15.197 15.197-1.407 87.217-25.103 110.913l-7.065 7.065-42.904-42.904z" fill="#896645"/><g><path d="M109.04 296.179l-34.64-34.64 17.459-17.458 34.639 34.64.521 18.114z" fill="#ffe79b"/><path d="M126.518 278.677l34.632 34.632-17.456 17.456-34.632-34.632z" fill="#f9d07f"/><path d="M121.745 283.475l-42.907-42.907 113.063-113.064 47.956 37.859-56.853 79.935z" fill="#f9d07f"/><path d="M164.649 326.379l-42.904-42.904 118.112-118.112 37.855 47.952z" fill="#e7b964"/><path d="M95.338 309.882l-42.907-42.907 17.458-17.459 42.907 42.907 2.744 20.338z" fill="#f9d07f"/><path d="M112.82 292.38l42.897 42.898-17.456 17.456-42.897-42.898z" fill="#e7b964"/><path d="M198.967 120.439c23.696-23.696 95.716-40.3 110.913-25.103l-30.831 59.605-44.24 15.47-42.907-42.907z" fill="#9f7651"/><path d="M309.88 95.336c15.197 15.197-1.407 87.217-25.103 110.913l-7.065 7.065-42.904-42.904z" fill="#896645"/></g></svg>