<svg xmlns="http://www.w3.org/2000/svg" viewBox="0 0 512 512"><circle cx="256" cy="256" r="256" fill="#ff422d"/><path d="M329.816 119.903L60 285.344l225.01 225.01C398.733 497.525 489.879 410.2 508.496 298.33l-47.446-47.686-131.234-130.741z" fill="#ff422d"/><path d="M464.229 255.641c5.261 14.148-12.738 36.997-50.301 56.723-37.202 19.645-93.968 36.167-157.928 35.795-63.959.372-120.725-16.15-157.928-35.795-37.563-19.726-55.563-42.575-50.301-56.723C59.857 226.606 151.2 236.799 256 235.807c104.8.991 196.144-9.201 208.229 19.834z" fill="#ac6646"/><path d="M464.229 255.641C452.144 226.606 360.8 236.798 256 235.807l-.429.003v112.348c.144-.001.285.002.429.001 63.96.372 120.726-16.15 157.928-35.795 37.563-19.726 55.562-42.575 50.301-56.723z" fill="#824730"/><path d="M131.974 265.042l40.719-127.867c6.744-21.176 26.413-35.555 48.637-35.555 13.325 0 25.533 5.131 34.669 13.586 9.136-8.455 21.344-13.586 34.669-13.586 22.224 0 41.894 14.379 48.637 35.555l40.719 127.867c.002 0-108.946 83.17-248.05 0z" fill="#cb8252"/><path d="M380.026 265.042l-40.719-127.867c-6.743-21.176-26.413-35.555-48.637-35.555-13.325 0-25.532 5.131-34.669 13.586-.14-.13-.287-.251-.429-.379v187.161c74.915.866 124.454-36.946 124.454-36.946z" fill="#ac6646"/><path d="M143.781 227.967l-11.806 37.074c139.103 83.17 248.051 0 248.051 0l-11.56-36.302c-30.409 17.745-117.716 56.793-224.685-.772z" fill="#605246"/><path d="M380.026 265.042l-11.56-36.302c-18.805 10.973-59.376 30.084-112.894 29.465v43.784c74.915.865 124.454-36.947 124.454-36.947z" fill="#473b33"/></svg>