<svg viewBox="0 0 512 512" xmlns="http://www.w3.org/2000/svg"><circle cx="256" cy="256" fill="#9f7651" r="256"/><path d="M127.31 428.672l78.372 78.372A257.212 257.212 0 00256 512c141.385 0 256-114.615 256-256 0-5.649-.203-11.249-.563-16.806L322.44 50.197z" fill="#9f7651"/><path d="M256.006 443.203h-89.455c-33.279 0-60.256-26.978-60.256-60.256v-77.664c0-77.32 62.68-140 140-140h9.711l40.269 140.039z" fill="#f9d07f"/><path d="M357.137 443.203H256.006v-277.92h9.698c77.32 0 140 62.68 140 140v89.353c.001 26.823-21.744 48.567-48.567 48.567z" fill="#e7b964"/><path d="M256.003 173.541h-41.627L189.56 50.197h66.443l17.871 62.151z" fill="#f9d07f"/><path d="M297.624 173.541h-41.621V50.197h66.437z" fill="#e7b964"/><path d="M256.009 172.2h-53.663v-29.035h53.663l14.434 14.63z" fill="#5a5555"/><path d="M256.009 143.165h53.658v29.034h-53.658z" fill="#464141"/><path d="M256 409.067h-9.305V221.541H256l4.653 95.495z" fill="#b4b41f"/><path d="M256 221.541h9.305v187.526H256z" fill="#97971a"/><path d="M217.465 271.362c-2.462 13.064 1.723 25.662 10.921 32.877 5.781 4.534 13.228 8.616 24.124 13.111v-20.325c-4.88-2.314-9.272-4.789-12.638-7.429-3.711-2.91-5.29-8.576-4.119-14.787 1.105-5.857 5.109-12.968 13.037-15.356a37.287 37.287 0 013.721-.911v-18.839a55.36 55.36 0 00-9.088 1.931c-13.311 4.008-23.257 15.4-25.958 29.728z" fill="#b4b41f"/><path d="M284.444 270.504l12.618-13.68-6.839-6.309c-.607-.559-12.208-10.998-30.732-11.217v18.623c10.881.196 17.614 5.842 18.167 6.322zM274.47 305.775c-4.929-1.742-10.066-3.634-14.98-5.668v19.999a397.143 397.143 0 008.778 3.215c17.194 6.077 16.135 20.796 15.401 25.163-1.728 10.281-9.99 21.333-24.179 22.64v18.673c25.012-1.354 39.548-20.484 42.531-38.228 3.475-20.674-7.339-38.649-27.551-45.794z" fill="#97971a"/><path d="M219.525 358.339l-10.188 15.574 7.786 5.094c13.671 8.943 22.361 10.675 35.388 10.855v-18.607c-10.123-.138-15.325-1.361-25.199-7.821z" fill="#b4b41f"/></svg>