<svg xmlns="http://www.w3.org/2000/svg" viewBox="0 0 512.012 512.012"><g fill="#372f16"><path d="M314.899 87.007a76.856 76.856 0 00-93.033 75.125 25.599 25.599 0 1051.195 0 25.648 25.648 0 0131.396-24.991 25.074 25.074 0 0119.188 19.2 25.982 25.982 0 01-4 20.458 25.666 25.666 0 01-17.267 10.675c-16.768 2.444-29.231 16.78-29.317 33.725v26.275c0 14.138 11.461 25.6 25.6 25.6 14.138 0 25.6-11.461 25.6-25.6v-12.925c32.401-11.446 53.262-43.015 51.086-77.31s-26.86-62.974-60.448-70.232zm32.7 109.375a59.912 59.912 0 01-34.009 23.608 8.527 8.527 0 00-6.396 8.258v19.225a8.533 8.533 0 01-17.066 0v-26.275c.048-8.466 6.286-15.622 14.667-16.825a42.761 42.761 0 0035.559-51.517 42.355 42.355 0 00-32.413-32.425 45.47 45.47 0 00-9.392-.992 42.027 42.027 0 00-26.779 9.55 42.563 42.563 0 00-15.775 33.142 8.53 8.53 0 11-17.063 0 59.522 59.522 0 0122.075-46.375c23.122-18.817 56.58-17.702 78.398 2.613s25.315 53.608 8.194 78.013zM298.666 290.14c-14.138 0-25.6 11.461-25.6 25.6s11.461 25.6 25.6 25.6 25.6-11.462 25.6-25.6c-.015-14.132-11.468-25.585-25.6-25.6zm0 34.133c-4.713 0-8.533-3.82-8.533-8.533s3.82-8.533 8.533-8.533 8.533 3.82 8.533 8.533a8.54 8.54 0 01-8.533 8.533z"/><path d="M500.554 144.366C471.064 58.016 389.913-.011 298.666.007 220.14-.045 147.942 43.075 110.754 112.238c-37.188 69.163-33.344 153.169 10.003 218.647l-35.392 35.391-.008.005-.005.008-30.198 30.197-.005.003-.003.005-42.664 42.662c-16.651 16.673-16.642 43.685.02 60.347s43.674 16.671 60.347.02l42.662-42.663.005-.003.003-.005 30.197-30.198.008-.005.005-.008 35.391-35.392c76.128 50.304 175.823 46.611 248.02-9.188s100.903-151.345 71.414-237.695zM60.783 487.457c-10.15 9.65-26.083 9.65-36.233 0-9.983-10.015-9.983-26.219 0-36.233l36.634-36.633 36.233 36.233-36.634 36.633zm48.699-48.701L73.25 402.524l18.142-18.142 36.231 36.231-18.141 18.143zm30.207-30.209l-36.23-36.23 27.438-27.438a215.121 215.121 0 0036.229 36.229l-27.437 27.439zm158.977 1.06c-108.395 0-196.267-87.872-196.267-196.267S190.271 17.073 298.666 17.073s196.267 87.872 196.267 196.267c-.122 108.345-87.922 196.145-196.267 196.267z"/><path d="M298.666 34.14c-98.969 0-179.2 80.231-179.2 179.2s80.231 179.2 179.2 179.2 179.2-80.231 179.2-179.2c-.112-98.923-80.277-179.088-179.2-179.2zm0 341.333c-89.544 0-162.133-72.59-162.133-162.133s72.59-162.133 162.133-162.133 162.133 72.59 162.133 162.133c-.101 89.502-72.631 162.032-162.133 162.133z"/></g></svg>