<svg viewBox="0 0 512 512" xmlns="http://www.w3.org/2000/svg"><circle cx="256" cy="256" fill="#ff6426" r="256"/><path d="M506.096 310.82L242.276 47l-20.549 13.274V387.18l-115.568 49.513 58.518 58.518C193.044 506.047 223.824 512 256 512c122.566 0 224.995-86.141 250.096-201.18z" fill="#ff6426"/><path d="M348.989 436.692h-31.912l-37.933-10.001V303.987h69.845l31.026 66.353z" fill="#adcfff"/><path d="M348.989 303.987h69.845v132.705h-69.845z" fill="#8bbbff"/><path d="M348.989 422.741H293.83v-71.124h55.159l24.502 35.562z" fill="#f9d07f"/><path d="M348.989 351.617h55.159v71.124h-55.159z" fill="#e7b964"/><path d="M393.992 351.617l-16.507 8.48-18.34-8.48v-16.959h34.847z" fill="#e8e1de"/><path d="M359.145 351.617h34.848v16.959h-34.848z" fill="#f9d07f"/><path d="M304.415 370.22h33.918v33.918h-33.918z" fill="#ffe79b"/><g><path d="M211.618 436.692h-105.46V244.785c0-31.749 22.447-59.069 53.593-65.227l51.866-10.255 46.847 105.427z" fill="#f9d07f"/><path d="M317.077 436.692H211.618V169.304l51.866 10.255c31.146 6.158 53.593 33.478 53.593 65.227z" fill="#e7b964"/><path d="M211.618 413.362h-94.034V245.685h94.034l41.771 14.754z" fill="#ffe79b"/><path d="M211.618 245.685h94.034v167.677h-94.034zM211.618 212.4H180.96V75.837l30.658-14.419 13.618 81.145z" fill="#f9d07f"/><path d="M242.276 212.4h-30.658V61.418l30.658 14.419z" fill="#e7b964"/><path d="M232.819 130.493l-21.202 50.117c-23.419 0-42.403-22.438-42.403-50.117s18.985-50.117 42.403-50.117z" fill="#f9d07f"/><path d="M254.021 130.493c0 27.679-18.985 50.117-42.403 50.117V80.376c23.418 0 42.403 22.439 42.403 50.117z" fill="#e7b964"/><g><path d="M211.618 75.837H180.96V47h30.658l13.618 14.418z" fill="#896645"/><path d="M211.618 47h30.658v28.837h-30.658z" fill="#73553a"/></g><g><path d="M246.778 301.813l-35.161 70.322c-38.838 0-70.322-31.484-70.322-70.322s31.484-70.322 70.322-70.322z" fill="#b4b41f"/><path d="M281.939 301.813c0 38.838-31.484 70.322-70.322 70.322V231.491c38.838 0 70.322 31.484 70.322 70.322z" fill="#97971a"/><g><path d="M225.048 266.764h66.949v70.097h-66.949z" fill="#97971a"/><path d="M131.238 266.764h66.949v70.097h-66.949z" fill="#b4b41f"/></g></g><g><path d="M237.417 301.813l-25.8 51.599c-28.497 0-51.599-23.102-51.599-51.599s23.102-51.599 51.599-51.599z" fill="#d1d124"/><path d="M263.217 301.813c0 28.497-23.102 51.599-51.599 51.599V250.213c28.497 0 51.599 23.102 51.599 51.6z" fill="#b4b41f"/></g></g></svg>